<svg viewBox="0 0 72 62" fill="none" xmlns="http://www.w3.org/2000/svg">
<g clip-path="url(#clip0_772_394)">
<path d="M65.9416 28.7932C65.8275 28.2628 65.6535 27.7501 65.4555 27.2492C65.2215 26.6658 64.9514 26.106 64.6694 25.5874C64.6634 25.5756 64.6574 25.5579 64.6454 25.5461C64.6274 25.5108 64.6034 25.4695 64.5854 25.4342C64.5194 25.3163 64.4234 25.2161 64.3513 25.11L63.9853 24.5856L63.8773 24.4618L63.2232 23.5955C63.1692 23.5189 63.1092 23.4482 63.0492 23.3775L62.3471 22.5525C62.2271 22.4405 62.1071 22.3345 61.9871 22.2166C61.9451 22.1694 61.897 22.1223 61.855 22.0811C61.861 22.2048 61.879 22.3286 61.885 22.4464C61.885 22.4877 61.885 22.5348 61.885 22.5761C61.885 22.5879 61.885 22.6055 61.885 22.6173C61.9691 24.5856 61.681 26.5126 61.309 28.3806C61.297 28.5574 61.279 28.7342 61.231 28.8757C61.219 28.911 61.207 28.9346 61.195 28.964C61.147 29.188 61.0389 29.6594 61.0329 29.6653C60.9489 29.9246 60.8949 30.2016 60.8649 30.455C60.8289 30.6553 60.7869 30.8144 60.7269 30.9853C60.6429 31.2623 60.5349 31.5334 60.4209 31.8221L60.3909 31.9046C60.2228 32.3466 59.9768 33.0773 59.8448 33.5311C59.7188 33.9554 59.5928 34.3797 59.4607 34.7981C59.2687 35.4051 59.0767 36.2183 58.6866 36.8842C58.3446 37.5148 58.2366 37.7682 57.8825 38.3162C57.6965 38.605 57.2345 39.0882 56.9944 39.3652C56.8504 39.5007 56.6704 39.6893 56.5864 39.7836C56.4904 39.8896 56.4064 39.9957 56.3343 40.0959C56.1843 40.2962 56.0583 40.4848 55.8783 40.6911C55.1402 41.5809 54.4921 42.5297 53.832 43.4784C53.46 44.0147 53.196 44.604 52.9379 45.2051C52.1758 46.8905 51.4437 48.7527 50.0876 50.4793C49.9856 50.6443 49.8775 50.8034 49.7455 50.9154C49.7095 50.9448 49.6915 50.9625 49.6615 50.9861C49.5775 51.0804 49.4395 51.2277 49.3315 51.3515C49.2115 51.4693 49.1094 51.5636 49.1034 51.5636C48.9294 51.705 48.7674 51.8524 48.6234 51.9997C48.5574 52.0645 48.4974 52.1175 48.4374 52.1765C48.2693 52.3356 48.1133 52.4476 47.9333 52.5536C47.6573 52.7304 47.3632 52.8777 47.0452 53.0133L46.7512 53.1429L45.965 53.467L43.9908 54.2921L43.4987 54.4983L42.9827 54.6574L41.9506 54.9815C41.6385 55.0876 41.4105 55.1642 41.1765 55.2408C40.9424 55.3115 40.6964 55.3528 40.3724 55.4176C40.0723 55.4706 39.5262 55.4883 39.1482 55.5119C39.0042 55.5237 38.8602 55.5178 38.7161 55.5178C38.0501 55.5178 37.666 55.5826 37.1139 55.6003C36.4539 55.6357 35.7998 55.5178 35.1457 55.4471C34.8217 55.3999 34.4916 55.3823 34.1736 55.2939C33.8555 55.2114 33.5435 55.123 33.2315 55.0287C32.8834 54.9167 32.5234 54.8519 32.1753 54.7576C31.8333 54.6574 31.4912 54.5513 31.1432 54.4512C30.1951 54.2096 29.343 53.7853 28.4669 53.4022C28.3528 53.3492 28.2388 53.2961 28.1308 53.2372C27.3027 52.7893 26.4566 52.3533 25.6705 51.8524C25.5085 51.7758 25.3525 51.6933 25.2325 51.599C25.2025 51.5754 25.1844 51.5577 25.1544 51.54C25.0524 51.4811 24.9024 51.3868 24.7704 51.3043C24.6444 51.2218 24.5364 51.157 24.5364 51.1511C24.3203 50.9802 24.0863 50.8329 23.8523 50.715C23.6723 50.6148 23.5342 50.5205 23.3902 50.4086C23.1562 50.2377 22.9282 50.0491 22.6941 49.8429H22.6821C22.3521 49.5482 21.788 49.1062 21.434 48.8587C20.4559 48.1751 19.4897 47.4857 18.5056 46.8374C17.9895 46.5133 17.7315 46.3483 17.2215 46.0242C16.9514 45.8474 16.4954 45.4172 16.2313 45.211C15.6733 44.6806 15.2892 44.5745 14.8212 44.2622C14.3351 43.9381 13.807 43.5727 13.351 43.284C12.8889 42.9952 12.3969 42.7359 11.8988 42.4884C11.6108 42.347 11.3347 42.2527 11.0047 42.1525C10.6626 42.0465 10.3206 41.9404 9.97855 41.8343C8.0283 41.192 6.13807 40.1312 4.61388 38.5814C4.46386 38.4576 4.31984 38.328 4.21183 38.1983C4.18182 38.163 4.16982 38.1394 4.15182 38.1099C3.9898 37.9096 3.65376 37.4912 3.64776 37.4794C3.46173 37.2378 3.31171 36.9667 3.13169 36.7428C2.99968 36.5601 2.89166 36.401 2.81365 36.2124C2.69964 35.959 2.60363 35.6879 2.50761 35.411C2.50761 35.411 2.50761 35.3992 2.50161 35.3933C2.48961 35.352 2.47161 35.3167 2.45961 35.2813L2.3816 34.9631C2.31559 34.6743 2.23158 34.3974 2.15957 34.1204C2.03355 33.6608 1.94954 33.1893 1.88354 32.7179C1.84153 32.4232 1.80553 32.1227 1.78752 31.828L1.76352 31.8752C1.28946 32.8239 0.95342 33.8316 0.653382 34.8452C0.623378 35.0043 0.593374 35.1576 0.569371 35.3285C0.509364 35.6231 0.431354 35.9119 0.359345 36.1947L0.263333 36.6367C0.215327 36.896 0.16132 37.1553 0.137317 37.4146C0.00530089 38.3457 0.149319 39.2885 -0.000699867 40.1666C-0.0247029 40.2373 0.0173024 40.6204 0.0473061 41.08C0.113314 41.5338 0.209326 42.0465 0.323341 42.3293C0.431354 42.73 0.665383 43.0836 0.821403 43.4667L0.971422 43.8026C1.03743 43.9558 1.11544 44.1031 1.19945 44.2504L1.38547 44.5686C1.72152 45.0931 2.14157 45.5646 2.62163 45.9712C2.77765 46.1008 2.93967 46.2305 3.10769 46.3483C3.79177 46.8315 4.52387 47.1851 5.32797 47.5269C6.18607 47.8923 7.11019 48.2282 8.07031 48.6348C8.41835 48.788 8.7664 48.9294 9.12644 49.1003C9.43848 49.2359 9.73852 49.395 10.0446 49.56C10.1706 49.6307 10.3026 49.7073 10.4226 49.7839C11.0707 50.2141 11.5387 50.5736 12.0548 50.9743L12.4509 51.2866C12.5649 51.375 12.6789 51.4575 12.7929 51.54C12.8469 51.5813 12.9069 51.6225 12.9609 51.6638C13.0449 51.7286 13.1289 51.7875 13.213 51.8524C13.855 52.3297 14.5091 52.8011 15.1812 53.2431C15.3312 53.3315 15.4752 53.414 15.6313 53.5024C15.9733 53.7145 16.3153 53.9267 16.6094 54.1624C16.6154 54.1624 16.6274 54.1742 16.6334 54.1801C16.9274 54.3746 17.2395 54.5513 17.5395 54.7399C18.3916 55.2644 19.3697 55.6121 20.1258 56.2367C20.2218 56.331 21.716 57.1443 22.3581 57.4212C25.8445 58.9829 29.421 60.3677 33.1174 61.1574C34.4496 61.4343 35.8598 61.5227 37.21 61.729C37.372 61.7585 37.54 61.7643 37.702 61.7879C37.744 61.7879 37.78 61.7997 37.822 61.7997C37.942 61.8174 38.0561 61.8292 38.1761 61.841C39.1062 61.947 40.0363 61.9883 40.9664 61.9883C41.1344 61.9824 41.2965 61.9647 41.4645 61.9411C41.7585 61.9176 42.0586 61.9117 42.3406 61.9117L42.8687 61.8881C43.1327 61.8645 43.3907 61.841 43.6488 61.8115C44.6089 61.6818 45.533 61.3459 46.4691 61.2811C46.6011 61.287 48.1673 60.8627 48.7794 60.5622C49.1995 60.3736 49.6255 60.1909 50.0156 59.9847C50.4296 59.7961 50.7897 59.5663 51.1497 59.3482C51.6478 59.0123 52.1218 58.6529 52.5599 58.2462C52.7399 58.0812 52.9139 57.9044 53.0759 57.7218C54.2221 56.4666 55.1522 54.8224 56.1723 53.1429C56.9044 51.9349 57.6065 50.5854 58.5606 49.4303L58.9027 49.0178C59.0227 48.8705 59.1487 48.7291 59.2687 48.5818C59.3227 48.5169 59.3767 48.4521 59.4367 48.3873C59.6408 48.1457 59.8508 47.91 60.0608 47.686L60.5169 47.1733C60.6009 47.0849 60.6729 46.9907 60.7509 46.8905L61.1169 46.4131C61.207 46.2776 61.291 46.1539 61.381 46.0124C61.561 45.7826 61.729 45.5174 61.903 45.2817L62.1551 44.9281C62.2631 44.7572 62.3771 44.5863 62.4851 44.4213C62.5631 44.2976 62.6411 44.1797 62.7071 44.0501C62.8992 43.6906 63.0672 43.3134 63.2472 42.9481C63.4572 42.5179 63.6433 42.0759 63.9313 41.6988C64.0333 41.6104 64.6694 40.0959 64.8734 39.4535C65.3175 38.0098 65.6535 36.5365 65.8875 35.0633C65.9356 34.7392 65.9896 34.4209 66.0256 34.0968C66.2416 32.2995 66.2596 30.4726 65.9175 28.7696L65.9416 28.7932Z" fill="black"/>
<path d="M59.6647 22.8705C59.6287 22.7114 59.6107 22.5523 59.6107 22.3932C59.6107 22.1516 59.6107 21.9277 59.5927 21.7685C59.5627 21.4032 59.5267 21.0378 59.4727 20.6783C59.4366 20.4249 59.3886 20.1715 59.3346 19.924C59.2686 19.594 59.1966 19.2581 59.1066 18.934C58.9626 18.4154 58.7886 17.9027 58.5785 17.4136C58.5665 17.3783 58.5545 17.3429 58.5425 17.3135C58.4045 17.0188 58.2485 16.73 58.0865 16.4413C57.7084 15.7695 57.2644 15.1331 56.7603 14.5261C56.4783 14.1902 56.1842 13.8602 55.8662 13.5478C55.0621 12.7287 54.066 12.0275 53.1539 11.2319L52.8178 10.949C52.0797 10.3244 51.3056 9.71741 50.5195 9.12811C50.3935 9.04561 50.2735 8.9631 50.1415 8.87471C49.8534 8.66846 49.5654 8.45631 49.3194 8.23238C49.3134 8.23238 49.3074 8.22059 49.3014 8.2147C49.0493 8.02612 48.7973 7.84344 48.5453 7.65486C47.8372 7.1245 47.0151 6.7002 46.415 6.06376C46.331 5.98126 45.1369 5.05017 44.6268 4.6848L42.5865 3.1762C42.2565 2.94048 41.9445 2.66941 41.6084 2.45726L40.5943 1.82082C39.2261 1.02527 37.7739 0.377039 36.2737 0.100069C35.1876 -0.0767205 34.0715 0.0175671 33.0033 0.135427L32.6253 0.217928C31.9472 0.318109 31.2991 0.559721 30.681 0.860263C30.519 0.936871 30.351 1.01937 30.189 1.10777C30.081 1.18438 29.973 1.26099 29.8589 1.34349C29.7029 1.43777 29.5529 1.54385 29.4029 1.64403C29.8169 1.53206 30.237 1.43777 30.657 1.37884C30.8251 1.32581 30.9931 1.29045 31.1431 1.29634C31.1851 1.29634 31.2091 1.29634 31.2391 1.29634C31.3951 1.28456 31.6772 1.26098 31.8332 1.24331C31.9112 1.23741 31.9892 1.23741 32.0732 1.23741C32.3073 1.23741 32.5353 1.24331 32.7513 1.21973C32.9553 1.20795 33.1234 1.20206 33.2974 1.23152C33.5794 1.27277 33.8614 1.33759 34.1675 1.40831C34.2635 1.43188 34.3535 1.44367 34.4495 1.47903C34.6955 1.56153 34.9476 1.63814 35.1996 1.68528C36.5018 1.98582 37.7739 2.43958 38.9321 3.07013C39.3341 3.2587 39.5802 3.38835 39.8922 3.57692C39.9942 3.64175 40.1082 3.70657 40.2342 3.78907C40.3663 3.87747 40.5523 4.02479 40.7263 4.17801C40.8883 4.34301 41.0503 4.51391 41.1704 4.61998C41.4104 4.89106 41.6504 5.07963 41.8604 5.23874C42.0465 5.38607 42.2145 5.56286 42.3825 5.73965C42.3825 5.73965 42.3825 5.73965 42.3885 5.74554C42.4005 5.76322 42.4185 5.775 42.4365 5.79268C42.6826 6.08144 42.9466 6.34662 43.2046 6.6177C43.3066 6.72377 43.4026 6.83574 43.5047 6.94181C43.8347 7.26593 44.1647 7.58415 44.5008 7.90826C44.5308 7.93773 44.5608 7.96719 44.5908 7.99076C44.6448 8.0438 44.6988 8.08505 44.7528 8.13219C45.1309 8.46809 45.5629 8.73328 45.995 9.00436C47.3991 9.8883 48.9353 10.7133 50.4175 11.9508C50.5675 12.0392 50.6996 12.1512 50.7956 12.2632C50.8196 12.2926 50.8376 12.3103 50.8556 12.3339C50.9396 12.4105 51.0656 12.5342 51.1736 12.6344C51.2756 12.7464 51.3596 12.8348 51.3596 12.8407C51.5217 13.0587 51.7317 13.2473 51.8997 13.4359C52.0377 13.5832 52.1397 13.7187 52.2357 13.872C52.2898 13.9486 52.3318 14.0311 52.3738 14.1077C52.4638 14.2786 52.5478 14.4495 52.6378 14.638L52.7578 14.8914C52.8238 15.0447 52.8958 15.192 52.9678 15.3393C53.0098 15.4218 53.0398 15.5102 53.0879 15.5868C53.2859 15.9699 53.4539 16.3588 53.6039 16.7536C53.928 17.5904 54.168 18.4508 54.348 19.3171C54.486 19.8887 54.528 20.1774 54.612 20.7608C54.642 21.0732 54.558 21.6801 54.552 21.9984C54.408 22.7232 54.54 23.0886 54.456 23.6366C54.336 24.7916 54.054 25.929 53.6339 27.0015C53.5079 27.302 53.3819 27.5967 53.2799 27.9031C53.1839 28.2096 53.0699 28.5101 52.9378 28.8048C52.2297 30.5255 51.1196 32.0341 49.7874 33.3836C49.7394 33.4425 49.6554 33.5309 49.6014 33.584C49.5534 33.637 49.5054 33.6782 49.4514 33.7136C49.4214 33.7313 49.4034 33.7431 49.3854 33.7549C49.3134 33.8197 49.2054 33.9199 49.1154 34.0083C49.0193 34.0908 48.9473 34.1674 48.9473 34.1674C48.7793 34.3147 48.6233 34.4856 48.4973 34.6565C48.3953 34.792 48.2933 34.8863 48.1912 34.9924C48.0292 35.1633 47.8492 35.3224 47.6512 35.4933C47.5912 35.5463 47.5372 35.6052 47.4771 35.6642C47.3211 35.8174 47.1651 35.9765 47.0331 36.1474C46.349 37.0608 45.7789 38.0508 45.1669 39.1292C44.8908 39.6125 44.7708 39.8835 44.4408 40.3727C44.2667 40.6437 43.7867 41.0739 43.5467 41.3096C42.9226 41.7988 42.7066 42.1347 42.2265 42.4882C41.9625 42.6532 41.7044 42.8418 41.4404 42.9891C41.1764 43.1306 40.9123 43.272 40.6423 43.4076C40.3663 43.5313 40.0902 43.6668 39.8082 43.767C39.5201 43.8613 39.2321 43.9556 38.9441 44.0381C38.614 44.1088 38.302 44.2031 37.984 44.3033L37.0418 44.5626C35.2236 45.0104 33.3514 45.0458 31.5031 44.8926C31.3351 44.8926 31.1731 44.8926 31.0291 44.8631C30.9931 44.8513 30.9691 44.8513 30.9391 44.8395C30.8311 44.8278 30.663 44.816 30.525 44.7924C30.387 44.7688 30.267 44.7511 30.267 44.7511C30.015 44.6922 29.7569 44.651 29.5109 44.6451C29.3189 44.6392 29.1629 44.592 29.0008 44.539C28.7368 44.4683 28.4788 44.3681 28.1967 44.2679C28.1127 44.2326 28.0227 44.209 27.9387 44.1677C27.7107 44.0676 27.4766 43.9674 27.2426 43.8967C26.6365 43.7317 26.0605 43.4783 25.4724 43.2543C25.4304 43.2367 25.3944 43.2249 25.3524 43.2072C24.7823 42.9479 24.2002 42.6886 23.6482 42.3881C23.1381 42.0934 22.8501 42.005 22.358 41.6632C22.094 41.4746 21.6559 41.0327 21.4099 40.8205C20.9478 40.2902 20.6298 40.1605 20.2457 39.8128C19.4356 39.1234 18.6255 38.4398 17.8214 37.7503C17.3714 37.3555 16.8613 37.0667 16.3573 36.7662L11.8987 34.2145C11.7487 34.1497 11.6047 34.079 11.4966 33.9965C11.4666 33.9729 11.4486 33.9611 11.4306 33.9434C11.2506 33.8315 10.8726 33.5957 10.8666 33.5899C10.6685 33.4484 10.4345 33.2893 10.2005 33.1656C10.0205 33.0654 9.87644 32.9711 9.73843 32.8473C9.5104 32.6647 9.29437 32.4584 9.06634 32.2463L8.96433 32.1461L8.85632 32.04C8.67029 31.8514 8.48427 31.6687 8.27424 31.5037C7.1341 30.8084 6.51002 29.506 6.294 28.2272C6.288 28.1801 6.27599 28.1271 6.26399 28.0799C6.17998 27.4729 6.12597 27.1665 6.13798 26.5477C6.13798 26.4181 6.16798 26.2472 6.20399 26.0645C6.26399 25.764 6.348 25.4458 6.40201 25.2395C6.50402 24.939 6.56403 24.7032 6.60604 24.4911C6.66604 24.22 6.71405 23.9725 6.78606 23.7073C6.80406 23.6543 6.81006 23.6013 6.83406 23.5423C6.87607 23.4127 6.92408 23.2771 6.97808 23.1416C7.00208 23.0827 7.02609 23.0179 7.05009 22.9589C6.76205 23.2712 6.48002 23.5895 6.22199 23.9077C5.21986 25.1393 4.45177 26.4476 3.98371 27.7794C3.77968 28.3569 3.64166 28.9462 3.56365 29.5296C3.43164 30.496 3.47964 31.4684 3.73168 32.4289C3.8877 33.0359 4.12773 33.637 4.45177 34.2263C4.54178 34.2086 4.63179 34.1968 4.7158 34.1791C4.64379 34.2204 4.57178 34.2675 4.49977 34.3088C4.7278 34.7095 4.99183 35.1043 5.29787 35.4933C5.47789 35.8115 5.67592 36.1238 5.92195 36.4067C6.01196 36.5069 6.08397 36.6129 6.19198 36.6954C6.37801 36.8722 6.54603 37.0667 6.70805 37.2494L6.94208 37.4792C7.08009 37.5971 7.22411 37.7208 7.36213 37.8387C7.43414 37.8976 7.50615 37.9565 7.58416 38.0096C7.87819 38.2099 8.18423 38.3985 8.49627 38.5694C8.86232 38.7521 9.19836 38.9642 9.5284 39.2C9.57041 39.2294 9.91245 39.4003 10.3085 39.5889C10.7045 39.7775 11.1906 39.9307 11.4666 40.0309C11.5026 40.0427 11.5387 40.0544 11.5747 40.0662C11.9167 40.1782 12.3488 40.3078 12.7268 40.4552C13.1589 40.6202 13.5849 40.8087 13.999 41.0209C14.8571 41.457 15.5352 41.952 16.2672 42.4116C16.5733 42.612 16.8733 42.8241 17.1794 43.0304C18.7396 44.0204 20.2097 45.0694 21.6379 46.1006C22.292 46.5308 22.9521 46.961 23.5642 47.4383L23.9182 47.7035C24.1462 47.8803 24.3803 48.0453 24.6143 48.2162C25.1724 48.6228 25.7304 49.0236 26.3005 49.4007C26.4325 49.4714 26.5585 49.5421 26.6905 49.6187C26.9846 49.7955 27.2786 49.9841 27.5367 50.1904L27.5547 50.2021C27.8067 50.373 28.0827 50.5027 28.3408 50.6559C28.7128 50.8681 29.1028 51.0507 29.4869 51.2393C29.8769 51.4043 30.255 51.5811 30.597 51.8168C30.645 51.8404 30.9811 52.0466 31.4011 52.194C31.8152 52.3472 32.2892 52.5181 32.5713 52.6065C35.6317 53.5317 38.8781 53.461 41.9385 52.5122C41.9985 52.4945 42.0525 52.4768 42.1125 52.4592L43.5407 51.8934C44.0867 51.6341 44.6688 51.4043 45.2149 51.1863C45.3409 51.1332 45.4609 51.0743 45.5809 51.0154C46.097 50.7679 46.577 50.4791 47.0031 50.1432C47.2251 49.937 47.4711 49.7602 47.6692 49.5303C47.7532 49.4302 47.8372 49.33 47.9272 49.2239C48.1132 48.9882 48.3113 48.7584 48.4973 48.5403C48.5093 48.5285 48.5213 48.5109 48.5273 48.4991C48.6893 48.2693 48.8513 48.0394 48.9953 47.7919C49.2534 47.3735 49.4574 46.8962 49.6854 46.4365C49.7394 46.3246 49.8054 46.2244 49.8775 46.1242C51.0596 44.5154 52.4098 42.2879 54.7561 38.8051C56.5023 36.2122 57.7624 33.8963 58.6085 31.7807C58.6445 31.6923 58.6745 31.6039 58.7106 31.5096C59.9887 28.2037 60.2227 25.4045 59.6467 22.8823L59.6647 22.8705Z" fill="black"/>
<path d="M51.8402 19.1522C51.6122 18.1857 51.1801 17.2782 50.7661 16.4119L50.6101 16.0996C50.238 15.3807 49.806 14.7678 49.2599 14.208C49.1699 14.1314 49.0799 14.0547 48.9839 13.9722C48.7858 13.7837 48.5578 13.6128 48.3778 13.4124C48.3718 13.4065 48.3598 13.3947 48.3538 13.3888C48.1437 13.2297 47.9337 13.0765 47.7297 12.9174C47.7177 12.9056 47.6997 12.8997 47.6817 12.8879C47.7117 12.941 47.7417 12.994 47.7657 13.047C48.0777 13.6599 48.2998 14.314 48.4198 14.9623C48.5758 15.693 48.7198 16.3884 48.8218 17.1132C49.0619 19.1757 48.6838 21.3149 47.7897 23.2242C47.7297 23.4069 47.6697 23.5837 47.5677 23.7133C47.5437 23.7487 47.5257 23.7723 47.5077 23.7958C47.3877 24.0139 47.1296 24.4676 47.1296 24.4735C46.9496 24.7092 46.7876 24.9568 46.6496 25.2043C46.5475 25.3987 46.4215 25.5343 46.2895 25.6757C46.0795 25.9055 45.8515 26.1648 45.5754 26.377L45.3114 26.5773C45.0594 26.7659 45.0654 26.7364 44.8553 26.9898C44.0332 28.0093 43.2831 29.0465 42.545 30.1661C42.209 30.6729 42.059 30.9558 41.6569 31.4744C41.4469 31.7572 40.9008 32.2051 40.6248 32.4408C39.9347 32.9476 39.7367 33.2482 39.2086 33.6548L38.9206 33.8669C37.9125 34.6448 36.6583 35.0455 35.4102 35.1811C34.6301 35.2754 33.922 35.352 33.1839 35.3932C31.0896 35.4698 29.0014 35.0043 27.0871 34.1675C26.9011 34.1144 26.7271 34.0496 26.5951 33.9612C26.559 33.9377 26.535 33.92 26.511 33.9023C26.295 33.7903 25.833 33.5546 25.821 33.5546C25.5809 33.3896 25.3289 33.2364 25.0769 33.1126C24.8788 33.0183 24.7288 32.9182 24.5788 32.7826C24.3328 32.5882 24.0927 32.3701 23.8527 32.1344L23.6607 31.9281C23.4867 31.7455 23.3126 31.5628 23.1146 31.4037C22.1065 30.6022 21.0624 29.8774 19.9282 29.2822C19.4182 29.017 19.1361 28.9168 18.6081 28.6575C18.464 28.5868 18.272 28.4631 18.068 28.3275C17.834 28.1802 17.6059 28.027 17.4439 27.9268C16.7418 27.42 16.3038 27.2904 15.7817 26.8955C15.2296 26.4889 14.7556 25.9998 14.3355 25.4694C13.9095 24.9273 13.5914 24.3144 13.3874 23.6721C13.1774 23.0356 13.0214 22.3992 12.9193 21.751C12.9073 21.6685 12.8833 21.5801 12.8713 21.4976C12.8173 21.0379 12.8113 20.5724 12.8413 20.1009C12.8653 19.6943 12.9794 19.0402 13.0694 18.6454C13.0934 18.5275 13.1234 18.4097 13.1594 18.2977V18.2859C13.1774 18.227 13.2014 18.1622 13.2254 18.1032C13.2854 17.9146 13.3454 17.7261 13.4234 17.5434C13.0094 17.9618 12.6433 18.4332 12.2173 18.8222C12.1512 18.8811 12.0912 18.9459 12.0252 18.999C12.0012 19.0107 11.9292 19.0932 11.8272 19.2111C11.5572 19.5293 11.0891 20.1304 10.8971 20.4663C10.8971 20.4663 10.8911 20.4781 10.8851 20.484C10.513 21.0851 10.177 21.7097 9.87696 22.3403C9.85896 22.3815 9.84096 22.4287 9.82296 22.4699C9.69694 22.7469 9.57693 23.0239 9.45691 23.3008C9.3309 23.6426 9.22888 23.896 9.13287 24.2142C9.03086 24.556 8.93485 24.9037 8.86284 25.2573C8.67081 26.153 8.6048 27.0782 8.79683 27.974C8.89284 28.4218 9.09087 28.852 9.3909 29.2174C9.54092 29.4001 9.70894 29.5651 9.89497 29.7124C10.087 29.8538 10.291 29.9658 10.453 30.1308L10.7051 30.3488L10.7891 30.4254C11.3411 30.8851 11.8572 31.2858 12.5713 31.7455C12.6853 31.8103 12.7993 31.8751 12.9193 31.934C13.1834 32.0873 13.4474 32.2523 13.6814 32.429C13.6874 32.429 13.6994 32.4408 13.7054 32.4408C13.9455 32.5823 14.1855 32.7237 14.4255 32.8651C15.1036 33.2717 15.9017 33.5664 16.4838 34.1144C16.5738 34.1734 17.7199 34.9571 18.188 35.2754C19.4962 36.1298 20.7263 37.0904 21.8965 38.0804L22.7606 38.8229C23.0486 39.0763 23.3186 39.2472 23.6007 39.4594L24.0147 39.7658L24.4648 40.0428C24.7708 40.2196 25.0529 40.4258 25.3769 40.5672C25.833 40.7853 26.301 41.0092 26.7991 41.1624L27.5312 41.4276C27.7832 41.5042 28.0292 41.5867 28.2693 41.6751L28.6233 41.7989C29.0194 41.9226 29.4214 42.0287 29.8235 42.1407L31.0536 42.3764C31.1796 42.3823 31.3056 42.3882 31.4377 42.3941C31.7257 42.4176 32.0137 42.4589 32.2778 42.506C32.2958 42.506 32.3138 42.506 32.3318 42.506C32.5958 42.5178 32.8598 42.5355 33.1239 42.5473C33.874 42.5709 34.6241 42.4059 35.3501 42.4825C35.4522 42.506 36.7063 42.3528 37.1984 42.2055C37.5404 42.1289 37.8645 41.9992 38.1945 41.905C38.5125 41.7753 38.8306 41.6692 39.1366 41.516C39.7427 41.2332 40.3608 40.8737 40.8648 40.5024C41.885 39.7246 42.6291 38.6226 43.4032 37.3202C43.9612 36.395 44.4953 35.3225 45.2694 34.4268L45.5454 34.1027C46.1695 33.4014 46.8296 32.7237 47.5257 32.0931C47.6277 31.993 47.7237 31.8928 47.8317 31.7867L48.1377 31.5097C48.2338 31.4096 48.3358 31.3153 48.4378 31.2269L48.6838 30.9676L49.2479 30.3017C49.5839 29.8244 49.878 29.3176 50.256 28.8933C50.346 28.8402 50.9461 27.7559 51.1261 27.2786C52.1342 24.7034 52.4163 21.8217 51.8402 19.1286V19.1522Z" fill="black"/>
<path d="M45.8755 14.538C45.5934 13.931 45.1614 13.2062 44.7473 12.6935C44.5253 12.4342 44.3033 12.2102 44.0332 11.9981C43.7572 11.786 43.4332 11.5679 43.0791 11.3381C42.359 10.8666 41.6089 10.3127 40.9429 9.71163C40.5948 9.3934 40.2468 9.08108 39.9107 8.76286C39.6647 8.53303 39.4247 8.35035 39.1246 8.12642L38.2305 7.44872L37.8885 7.18943C37.7745 7.10104 37.6545 7.01854 37.5404 6.93014C36.8864 6.44692 36.2203 5.98727 35.5962 5.65726C35.4702 5.61011 35.3562 5.56297 35.2241 5.50993C34.9481 5.3744 34.6481 5.29189 34.408 5.15636H34.39C34.138 5.07975 33.88 4.99724 33.6219 4.9501C33.2139 4.86171 32.7938 4.85581 32.3798 4.85581C32.0438 4.85581 31.7137 4.86171 31.3897 4.83813C31.3417 4.84992 30.9936 4.85581 30.6036 4.95599C30.2135 5.0326 29.7875 5.19761 29.5474 5.31547C29.4094 5.38029 29.2774 5.46868 29.1454 5.55118C28.9054 5.69851 28.6713 5.85173 28.4493 6.02262C28.2873 6.15227 28.1253 6.27602 27.9752 6.42335C27.0151 7.26015 26.103 8.10284 25.1429 9.00447L23.8287 10.2184L23.1146 10.8784L22.2865 11.6445C21.8665 12.0335 21.4644 12.4401 21.0444 12.8467C20.9784 12.9115 20.9064 12.9763 20.8403 13.0412C20.4323 13.436 20.0062 13.8249 19.5322 14.1844C19.4062 14.2787 19.2742 14.3848 19.0881 14.5085C18.8661 14.6558 18.6501 14.809 18.434 14.9682C17.942 15.3335 17.4799 15.7284 17.1079 16.1585C17.0239 16.2528 16.9519 16.353 16.8799 16.465C16.8378 16.518 16.7958 16.571 16.7538 16.63C16.6158 16.8068 16.4838 16.9836 16.3578 17.1427C16.3518 17.1545 16.3458 17.1603 16.3398 17.1721C16.1898 17.3902 16.0578 17.6141 15.9497 17.8498C15.9377 17.8734 15.9317 17.8911 15.9257 17.9146C15.6137 18.5629 15.5117 19.2759 15.2717 19.9418C15.2597 19.9536 15.2536 20.0008 15.2416 20.0597C15.2236 20.1776 15.1996 20.372 15.1816 20.6018L15.1936 21.3915C15.2116 21.5565 15.2356 21.7038 15.2537 21.8158C15.4157 22.6762 15.7997 23.4953 16.3698 24.1612C16.9939 24.9273 17.852 25.4636 18.7221 25.9173L20.1923 26.6834C20.7203 26.9604 21.2484 27.2609 21.7705 27.5732C22.8506 28.2215 24.0027 28.9168 24.9389 29.7772L25.2749 30.0778C25.4669 30.2604 25.6349 30.3901 25.797 30.5256C25.965 30.6553 26.127 30.7967 26.307 30.9263C26.6791 31.168 27.0391 31.4272 27.4472 31.6217C27.5732 31.6806 27.6932 31.7337 27.8192 31.7926C28.1073 31.9281 28.4073 32.046 28.6713 32.1992L28.6893 32.211C28.9534 32.3171 29.2234 32.3996 29.4934 32.4998C30.2495 32.7355 31.0596 32.7944 31.7977 33.0125C31.8277 33.0183 31.8517 33.0301 31.8757 33.036C32.1278 33.1008 33.3459 33.1892 33.862 33.1362C34.162 33.1067 34.444 33.0714 34.7261 33.0301C35.9322 32.8416 37.0784 32.3348 38.0085 31.5628C38.0085 31.5628 38.0145 31.5628 38.0205 31.5569C38.1885 31.4213 38.3505 31.2858 38.5006 31.1503C38.8126 30.8733 39.1066 30.5904 39.3767 30.2899C39.9227 29.6947 40.4148 28.9817 40.9429 28.2332C41.651 27.2314 42.299 26.1707 43.1991 25.1866C43.3552 25.0157 43.5352 24.8625 43.6132 24.7976C44.1833 24.3203 44.6993 23.6721 45.1194 22.9885L45.4134 22.4287C45.5214 22.1988 45.6294 21.969 45.7495 21.751L45.8395 21.5624C45.9235 21.3267 46.0135 21.0969 46.0915 20.8611C46.3255 20.1127 46.3135 19.3172 46.5236 18.5864C46.5296 18.5334 46.5716 18.1798 46.5716 17.7673C46.5716 17.3548 46.5296 16.8893 46.4876 16.6182C46.3615 15.8875 46.1635 15.1685 45.8755 14.5262V14.538Z" fill="black"/>
</g>
<defs>
<clipPath id="clip0_772_394">
<rect width="192" height="62" fill="black"/>
</clipPath>
</defs>
</svg>
