<svg fill="none" height="62" viewBox="0 0 192 62" width="192" xmlns="http://www.w3.org/2000/svg" xmlns:xlink="http://www.w3.org/1999/xlink"><clipPath id="a"><path d="m0 0h192v62h-192z"/></clipPath><g clip-path="url(#a)" fill="#fff"><path d="m75.2245 11.2909v11.7683h-2.8083v-11.7683h-3.2404v-2.37488h9.2831v2.37488h-3.2404z"/><path d="m82.8396 14.3847h6.0908v-5.46868h2.8083v14.14318h-2.8083v-6.2996h-6.0908v6.2996h-2.8084v-14.14318h2.8084z"/><path d="m102.907 11.2909h-5.1847v3.1586h4.9687v2.3749h-4.9687v3.8599h5.1847v2.3749h-7.9871v-14.14318h7.9871z"/><path d="m78.3403 30.0953h-4.8366v3.1587h4.5365v2.3748h-4.5365v6.2348h-2.8084v-14.1431h7.645z"/><path d="m84.7195 27.7205c1.9862 0 3.0004.5068 3.6725 1.0607 1.0981.9134 1.4221 2.1215 1.4221 3.1822 0 1.379-.564 2.587-1.6862 3.3295-.366.2534-.8881.4892-1.5782.6129l4.4886 5.9578h-3.4985l-3.8404-5.6808h-.3481v5.6808h-2.8083v-14.1431h4.1645zm-1.3622 6.5117h.7981c.5401 0 2.7664-.0648 2.7664-2.1392 0-2.0743-2.2023-2.1214-2.7184-2.1214h-.8401v4.2606z"/><path d="m100.663 30.0953h-5.1849v3.1587h4.9689v2.3748h-4.9689v3.8599h5.1849v2.3749h-7.9872v-14.1431h7.9872z"/><path d="m110.233 30.944c-.84-1.102-1.836-1.2081-2.352-1.2081-1.512 0-1.986.9311-1.986 1.6559 0 .3418.108.66.456.9547.348.3182.822.4891 1.728.8073 1.122.3831 2.178.7661 2.916 1.4202.648.5716 1.23 1.5263 1.23 2.9701 0 2.7579-2.028 4.6436-5.01 4.6436-2.659 0-4.213-1.5911-4.969-2.6695l1.836-1.7148c.69 1.3789 2.011 1.8857 3.025 1.8857 1.272 0 2.226-.7661 2.226-1.9505 0-.5068-.174-.9135-.564-1.2729-.54-.4891-1.404-.7661-2.226-1.0372-.756-.2534-1.663-.5952-2.395-1.2316-.474-.4007-1.146-1.1845-1.146-2.6283 0-2.0802 1.428-4.1545 4.621-4.1545.906 0 2.61.1709 4.08 1.6559l-1.47 1.8857z"/><path d="m117.357 33.1891h6.091v-5.4686h2.808v14.1431h-2.808v-6.2996h-6.091v6.2996h-2.808v-14.1431h2.808z"/><path d="m134.914 41.8638h-2.118l-5.011-14.1431h2.983l3.216 9.6291 3.516-9.7529h1.555l3.324 9.7529 3.456-9.6291h2.983l-5.335 14.1431h-2.118l-3.151-8.9691z"/><path d="m156.494 38.8935h-5.808l-1.273 2.9701h-3.042l6.199-14.1431h2.202l6.025 14.1431h-3.024l-1.273-2.9701zm-.822-2.2452-2.052-5.0915-2.052 5.0915z"/><path d="m165.951 30.0953v11.7683h-2.808v-11.7683h-3.241v-2.3748h9.284v2.3748h-3.241z"/><path d="m178.745 30.0953h-5.185v3.1587h4.969v2.3748h-4.969v3.8599h5.185v2.3749h-7.987v-14.1431h7.987z"/><path d="m185.675 27.7205c1.986 0 3 .5068 3.672 1.0607 1.098.9134 1.422 2.1215 1.422 3.1822 0 1.379-.564 2.587-1.686 3.3295-.366.2534-.888.4892-1.578.6129l4.488 5.9578h-3.498l-3.841-5.6808h-.348v5.6808h-2.808v-14.1431h4.165zm-1.363 6.5117h.799c.54 0 2.766-.0648 2.766-2.1392 0-2.0743-2.202-2.1214-2.718-2.1214h-.841v4.2606z"/><path d="m75.2245 48.9v11.7683h-2.8083v-11.7683h-3.2404v-2.3749h9.2831v2.3749h-3.2404z"/><path d="m84.196 46.5251c1.9863 0 3.0004.5068 3.6725 1.0608 1.0981.9134 1.4222 2.1215 1.4222 3.1822 0 1.3789-.5641 2.587-1.6862 3.3295-.3661.2534-.8881.4891-1.5782.6129l4.4885 5.9578h-3.4984l-3.8405-5.6808h-.348v5.6808h-2.8084v-14.1432h4.1645zm-1.3561 6.5118h.7981c.5401 0 2.7663-.0648 2.7663-2.1392 0-2.0743-2.2022-2.1214-2.7183-2.1214h-.8401v4.2606z"/><path d="m94.6912 46.5251v8.8867c0 1.0843.366 1.7384.6901 2.0979.408.4891 1.1641.9723 2.2862.9723 1.1222 0 1.8783-.4891 2.2863-.9723.3242-.3595.6902-1.0195.6902-2.0979v-8.8867h2.808v8.6509c0 1.3377-.216 2.6931-1.08 3.7715-1.038 1.3377-2.8502 2.0331-4.7045 2.0331-1.8542 0-3.6724-.7012-4.7046-2.0331-.8641-1.0784-1.0801-2.4397-1.0801-3.7715v-8.6509z"/><path d="m113.372 49.7484c-.84-1.102-1.836-1.2081-2.353-1.2081-1.512 0-1.986.9311-1.986 1.656 0 .3418.108.66.456.9546.348.3182.822.4891 1.728.8074 1.123.383 2.179.7661 2.917 1.4202.648.5716 1.23 1.5263 1.23 2.97 0 2.7579-2.028 4.6437-5.011 4.6437-2.658 0-4.212-1.5911-4.968-2.6695l1.836-1.7149c.69 1.379 2.01 1.8858 3.024 1.8858 1.273 0 2.227-.7661 2.227-1.9506 0-.5068-.174-.9134-.564-1.2729-.54-.4891-1.405-.7661-2.227-1.0371-.756-.2534-1.662-.5952-2.394-1.2317-.474-.4007-1.146-1.1845-1.146-2.6282 0-2.0803 1.428-4.1546 4.62-4.1546.907 0 2.611.1709 4.081 1.6559l-1.47 1.8858z"/><path d="m122.307 48.9v11.7683h-2.809v-11.7683h-3.24v-2.3749h9.283v2.3749h-3.24z"/><path d="m65.9416 28.7932c-.1141-.5304-.2881-1.0431-.4861-1.544-.234-.5834-.5041-1.1432-.7861-1.6618-.006-.0118-.012-.0295-.024-.0413-.018-.0353-.042-.0766-.06-.1119-.066-.1179-.162-.2181-.2341-.3242l-.366-.5244-.108-.1238-.6541-.8663c-.054-.0766-.114-.1473-.174-.218l-.7021-.825c-.12-.112-.24-.218-.36-.3359-.042-.0472-.0901-.0943-.1321-.1355.006.1237.024.2475.03.3653v.1297.0412c.0841 1.9683-.204 3.8953-.576 5.7633-.012.1768-.03.3536-.078.4951-.012.0353-.024.0589-.036.0883-.048.224-.1561.6954-.1621.7013-.084.2593-.138.5363-.168.7897-.036.2003-.078.3594-.138.5303-.084.277-.192.5481-.306.8368l-.03.0825c-.1681.442-.4141 1.1727-.5461 1.6265-.126.4243-.252.8486-.3841 1.267-.192.607-.384 1.4202-.7741 2.0861-.342.6306-.45.884-.8041 1.432-.186.2888-.648.772-.8881 1.049-.144.1355-.324.3241-.408.4184-.096.106-.18.2121-.2521.3123-.15.2003-.276.3889-.456.5952-.7381.8898-1.3862 1.8386-2.0463 2.7873-.372.5363-.636 1.1256-.8941 1.7267-.7621 1.6854-1.4942 3.5476-2.8503 5.2742-.102.165-.2101.3241-.3421.4361-.036.0294-.054.0471-.084.0707-.084.0943-.222.2416-.33.3654-.12.1178-.2221.2121-.2281.2121-.174.1414-.336.2888-.48.4361-.066.0648-.126.1178-.186.1768-.1681.1591-.3241.2711-.5041.3771-.276.1768-.5701.3241-.8881.4597l-.294.1296-.7862.3241-1.9742.8251-.4921.2062-.516.1591-1.0321.3241c-.3121.1061-.5401.1827-.7741.2593-.2341.0707-.4801.112-.8041.1768-.3001.053-.8462.0707-1.2242.0943-.144.0118-.288.0059-.4321.0059-.666 0-1.0501.0648-1.6022.0825-.66.0354-1.3141-.0825-1.9682-.1532-.324-.0472-.6541-.0648-.9721-.1532-.3181-.0825-.6301-.1709-.9421-.2652-.3481-.112-.7081-.1768-1.0562-.2711-.342-.1002-.6841-.2063-1.0321-.3064-.9481-.2416-1.8002-.6659-2.6763-1.049-.1141-.053-.2281-.1061-.3361-.165-.8281-.4479-1.6742-.8839-2.4603-1.3848-.162-.0766-.318-.1591-.438-.2534-.03-.0236-.0481-.0413-.0781-.059-.102-.0589-.252-.1532-.384-.2357-.126-.0825-.234-.1473-.234-.1532-.2161-.1709-.4501-.3182-.6841-.4361-.18-.1002-.3181-.1945-.4621-.3064-.234-.1709-.462-.3595-.6961-.5657h-.012c-.33-.2947-.8941-.7367-1.2481-.9842-.9781-.6836-1.9443-1.373-2.9284-2.0213-.5161-.3241-.7741-.4891-1.2841-.8132-.2701-.1768-.7261-.607-.9902-.8132-.558-.5304-.9421-.6365-1.4101-.9488-.4861-.3241-1.0142-.6895-1.4702-.9782-.4621-.2888-.9541-.5481-1.4522-.7956-.288-.1414-.5641-.2357-.8941-.3359-.3421-.106-.6841-.2121-1.02615-.3182-1.95025-.6423-3.84048-1.7031-5.36467-3.2529-.15002-.1238-.29404-.2534-.40205-.3831-.03001-.0353-.04201-.0589-.06001-.0884-.16202-.2003-.49806-.6187-.50406-.6305-.18603-.2416-.33605-.5127-.51607-.7366-.13201-.1827-.24003-.3418-.31804-.5304-.11401-.2534-.21002-.5245-.30604-.8014 0 0 0-.0118-.006-.0177-.012-.0413-.03-.0766-.042-.112l-.07801-.3182c-.06601-.2888-.15002-.5657-.22203-.8427-.12602-.4596-.21003-.9311-.27603-1.4025-.04201-.2947-.07801-.5952-.09602-.8899l-.024.0472c-.47406.9487-.8101 1.9564-1.110138 2.97-.030004.1591-.060008.3124-.084011.4833-.060007.2946-.138017.5834-.210026.8662l-.096012.442c-.048006.2593-.102013.5186-.126016.7779-.13201611.9311.012002 1.8739-.13801687 2.752-.02400303.0707.01800227.4538.04800597.9134.0660079.4538.1620199.9665.2760349 1.2493.108013.4007.342042.7543.498062 1.1374l.150019.3359c.066008.1532.144018.3005.228028.4478l.18602.3182c.33605.5245.7561.996 1.23616 1.4026.15602.1296.31804.2593.48606.3771.68408.4832 1.41618.8368 2.22028 1.1786.8581.3654 1.78222.7013 2.74234 1.1079.34804.1532.69609.2946 1.05613.4655.31204.1356.61208.2947.91816.4597.126.0707.258.1473.378.2239.6481.4302 1.1161.7897 1.6322 1.1904l.3961.3123c.114.0884.228.1709.342.2534.054.0413.114.0825.168.1238.084.0648.168.1237.2521.1886.642.4773 1.2961.9487 1.9682 1.3907.15.0884.294.1709.4501.2593.342.2121.684.4243.9781.66.006 0 .018.0118.024.0177.294.1945.6061.3712.9061.5598.8521.5245 1.8302.8722 2.5863 1.4968.096.0943 1.5902.9076 2.2323 1.1845 3.4864 1.5617 7.0629 2.9465 10.7593 3.7362 1.3322.2769 2.7424.3653 4.0926.5716.162.0295.33.0353.492.0589.042 0 .078.0118.12.0118.12.0177.2341.0295.3541.0413.9301.106 1.8602.1473 2.7903.1473.168-.0059.3301-.0236.4981-.0472.294-.0235.5941-.0294.8761-.0294l.5281-.0236c.264-.0236.522-.0471.7801-.0766.9601-.1297 1.8842-.4656 2.8203-.5304.132.0059 1.6982-.4184 2.3103-.7189.4201-.1886.8461-.3713 1.2362-.5775.414-.1886.7741-.4184 1.1341-.6365.4981-.3359.9721-.6953 1.4102-1.102.18-.165.354-.3418.516-.5244 1.1462-1.2552 2.0763-2.8994 3.0964-4.5789.7321-1.208 1.4342-2.5575 2.3883-3.7126l.3421-.4125c.12-.1473.246-.2887.366-.436.054-.0649.108-.1297.168-.1945.2041-.2416.4141-.4773.6241-.7013l.4561-.5127c.084-.0884.156-.1826.234-.2828l.366-.4774c.0901-.1355.1741-.2592.2641-.4007.18-.2298.348-.495.522-.7307l.2521-.3536c.108-.1709.222-.3418.33-.5068.078-.1237.156-.2416.222-.3712.1921-.3595.3601-.7367.5401-1.102.21-.4302.3961-.8722.6841-1.2493.102-.0884.7381-1.6029.9421-2.2453.4441-1.4437.7801-2.917 1.0141-4.3902.0481-.3241.1021-.6424.1381-.9665.216-1.7973.234-3.6242-.1081-5.3272z"/><path d="m59.6647 22.8705c-.036-.1591-.054-.3182-.054-.4773 0-.2416 0-.4655-.018-.6247-.03-.3653-.066-.7307-.12-1.0902-.0361-.2534-.0841-.5068-.1381-.7543-.066-.33-.138-.6659-.228-.99-.144-.5186-.318-1.0313-.5281-1.5204-.012-.0353-.024-.0707-.036-.1001-.138-.2947-.294-.5835-.456-.8722-.3781-.6718-.8221-1.3082-1.3262-1.9152-.282-.3359-.5761-.6659-.8941-.9783-.8041-.8191-1.8002-1.5203-2.7123-2.3159l-.3361-.2829c-.7381-.6246-1.5122-1.23159-2.2983-1.82089-.126-.0825-.246-.16501-.378-.2534-.2881-.20625-.5761-.4184-.8221-.64233-.006 0-.012-.01179-.018-.01768-.2521-.18858-.5041-.37126-.7561-.55984-.7081-.53036-1.5302-.95466-2.1303-1.5911-.084-.0825-1.2781-1.01359-1.7882-1.37896l-2.0403-1.5086c-.33-.23572-.642-.50679-.9781-.71894l-1.0141-.63644c-1.3682-.79555-2.8204-1.443781-4.3206-1.720751-1.0861-.1767895-2.2022-.0825019-3.2704.035358l-.378.082501c-.6781.100181-1.3262.341793-1.9443.642335-.162.076608-.33.159107-.492.247507-.108.07661-.216.15322-.3301.23572-.156.09428-.306.20036-.456.30054.414-.11197.8341-.20626 1.2541-.26519.1681-.05303.3361-.08839.4861-.0825h.096c.156-.01178.4381-.03536.5941-.05303.078-.0059.156-.0059.24-.0059.2341 0 .4621.0059.6781-.01768.204-.01178.3721-.01767.5461.01179.282.04125.564.10607.8701.17679.096.02357.186.03536.282.07072.246.0825.4981.15911.7501.20625 1.3022.30054 2.5743.7543 3.7325 1.38485.402.18857.6481.31822.9601.50679.102.06483.216.12965.342.21215.1321.0884.3181.23572.4921.38894.162.165.324.3359.4441.44197.24.27108.48.45965.69.61876.1861.14733.3541.32412.5221.50091 0 0 0 0 .006.00589.012.01768.03.02946.048.04714.2461.28876.5101.55394.7681.82502.102.10607.198.21804.3001.32411.33.32412.66.64234.9961.96645.03.02947.06.05893.09.0825.054.05304.108.09429.162.14143.3781.3359.8101.60109 1.2422.87217 1.4041.88394 2.9403 1.70894 4.4225 2.94644.15.0884.2821.2004.3781.3124.024.0294.042.0471.06.0707.084.0766.21.2003.318.3005.102.112.186.2004.186.2063.1621.218.3721.4066.5401.5952.138.1473.24.2828.336.4361.0541.0766.0961.1591.1381.2357.09.1709.174.3418.264.5303l.12.2534c.066.1533.138.3006.21.4479.042.0825.072.1709.1201.2475.198.3831.366.772.516 1.1668.3241.8368.5641 1.6972.7441 2.5635.138.5716.18.8603.264 1.4437.03.3124-.054.9193-.06 1.2376-.144.7248-.012 1.0902-.096 1.6382-.12 1.155-.402 2.2924-.8221 3.3649-.126.3005-.252.5952-.354.9016-.096.3065-.21.607-.3421.9017-.7081 1.7207-1.8182 3.2293-3.1504 4.5788-.048.0589-.132.1473-.186.2004-.048.053-.096.0942-.15.1296-.03.0177-.048.0295-.066.0413-.072.0648-.18.165-.27.2534-.0961.0825-.1681.1591-.1681.1591-.168.1473-.324.3182-.45.4891-.102.1355-.204.2298-.3061.3359-.162.1709-.342.33-.54.5009-.06.053-.114.1119-.1741.1709-.156.1532-.312.3123-.444.4832-.6841.9134-1.2542 1.9034-1.8662 2.9818-.2761.4833-.3961.7543-.7261 1.2435-.1741.271-.6541.7012-.8941.9369-.6241.4892-.8401.8251-1.3202 1.1786-.264.165-.5221.3536-.7861.5009-.264.1415-.5281.2829-.7981.4185-.276.1237-.5521.2592-.8341.3594-.2881.0943-.5761.1886-.8641.2711-.3301.0707-.6421.165-.9601.2652l-.9422.2593c-1.8182.4478-3.6904.4832-5.5387.33-.168 0-.33 0-.474-.0295-.036-.0118-.06-.0118-.09-.0236-.108-.0117-.2761-.0235-.4141-.0471s-.258-.0413-.258-.0413c-.252-.0589-.5101-.1001-.7561-.106-.192-.0059-.348-.0531-.5101-.1061-.264-.0707-.522-.1709-.8041-.2711-.084-.0353-.174-.0589-.258-.1002-.228-.1001-.4621-.2003-.6961-.271-.6061-.165-1.1821-.4184-1.7702-.6424-.042-.0176-.078-.0294-.12-.0471-.5701-.2593-1.1522-.5186-1.7042-.8191-.5101-.2947-.7981-.3831-1.2902-.7249-.264-.1886-.7021-.6305-.9481-.8427-.4621-.5303-.7801-.66-1.1642-1.0077-.8101-.6894-1.6202-1.373-2.4243-2.0625-.45-.3948-.9601-.6836-1.4641-.9841l-4.4586-2.5517c-.15-.0648-.294-.1355-.4021-.218-.03-.0236-.048-.0354-.066-.0531-.18-.1119-.558-.3477-.564-.3535-.1981-.1415-.4321-.3006-.6661-.4243-.18-.1002-.32406-.1945-.46207-.3183-.22803-.1826-.44406-.3889-.67209-.601l-.10201-.1002-.10801-.1061c-.18603-.1886-.37205-.3713-.58208-.5363-1.14014-.6953-1.76422-1.9977-1.98024-3.2765-.006-.0471-.01801-.1001-.03001-.1473-.08401-.607-.13802-.9134-.12601-1.5322 0-.1296.03-.3005.06601-.4832.06-.3005.14401-.6187.19802-.825.10201-.3005.16202-.5363.20403-.7484.06-.2711.10801-.5186.18002-.7838.018-.053.024-.106.048-.165.04201-.1296.09002-.2652.14402-.4007.024-.0589.04801-.1237.07201-.1827-.28804.3123-.57007.6306-.8281.9488-1.00213 1.2316-1.77022 2.5399-2.23828 3.8717-.20403.5775-.34205 1.1668-.42006 1.7502-.13201.9664-.08401 1.9388.16803 2.8993.15602.607.39605 1.2081.72009 1.7974.09001-.0177.18002-.0295.26403-.0472-.07201.0413-.14402.0884-.21603.1297.22803.4007.49206.7955.7981 1.1845.18002.3182.37805.6305.62408.9134.09001.1002.16202.2062.27003.2887.18603.1768.35405.3713.51607.554l.23403.2298c.13801.1179.28203.2416.42005.3595.07201.0589.14402.1178.22203.1709.29403.2003.60007.3889.91211.5598.36605.1827.70209.3948 1.03213.6306.04201.0294.38405.2003.7801.3889.396.1886.8821.3418 1.1581.442.036.0118.0721.0235.1081.0353.342.112.7741.2416 1.1521.389.4321.165.8581.3535 1.2722.5657.8581.4361 1.5362.9311 2.2682 1.3907.3061.2004.6061.4125.9122.6188 1.5602.99 3.0303 2.039 4.4585 3.0702.6541.4302 1.3142.8604 1.9263 1.3377l.354.2652c.228.1768.4621.3418.6961.5127.5581.4066 1.1161.8074 1.6862 1.1845.132.0707.258.1414.39.218.2941.1768.5881.3654.8462.5717l.018.0117c.252.1709.528.3006.7861.4538.372.2122.762.3948 1.1461.5834.39.165.7681.3418 1.1101.5775.048.0236.3841.2298.8041.3772.4141.1532.8881.3241 1.1702.4125 3.0604.9252 6.3068.8545 9.3672-.0943.06-.0177.114-.0354.174-.053l1.4282-.5658c.546-.2593 1.1281-.4891 1.6742-.7071.126-.0531.246-.112.366-.1709.5161-.2475.9961-.5363 1.4222-.8722.222-.2062.468-.383.6661-.6129.084-.1001.168-.2003.258-.3064.186-.2357.3841-.4655.5701-.6836.012-.0118.024-.0294.03-.0412.162-.2298.324-.4597.468-.7072.2581-.4184.4621-.8957.6901-1.3554.054-.1119.12-.2121.1921-.3123 1.1821-1.6088 2.5323-3.8363 4.8786-7.3191 1.7462-2.5929 3.0063-4.9088 3.8524-7.0244.036-.0884.066-.1768.1021-.2711 1.2781-3.3059 1.5121-6.1051.9361-8.6273z"/><path d="m20.504 45.3051c.372.2593.7561.5186 1.1401.772-1.4282-1.0313-2.8924-2.0861-4.4586-3.0703 1.1222.7543 2.2203 1.5322 3.3125 2.3042z"/><path d="m14.0063 40.9974c-.414-.2122-.8401-.4007-1.2721-.5657-.3841-.1533-.8101-.277-1.1522-.389.2401.112.4861.224.7381.3359 1.7462.7602 3.3544 1.6677 4.8666 2.6283-.306-.2063-.6-.4184-.9121-.6188-.7381-.4596-1.4102-.9487-2.2683-1.3907z"/><path d="m23.5708 47.4149c-.6121-.4715-1.2722-.9076-1.9263-1.3378.7621.554 1.5122 1.0961 2.2623 1.6206h.006c.234.165.4741.33.7081.4891-.234-.1709-.4681-.3359-.6961-.5127l-.354-.2651z"/><path d="m51.8402 19.1522c-.228-.9665-.6601-1.874-1.0741-2.7403l-.156-.3123c-.3721-.7189-.8041-1.3318-1.3502-1.8916-.09-.0766-.18-.1533-.276-.2358-.1981-.1885-.4261-.3594-.6061-.5598-.006-.0059-.018-.0177-.024-.0236-.2101-.1591-.4201-.3123-.6241-.4714-.012-.0118-.03-.0177-.048-.0295.03.0531.06.1061.084.1591.312.6129.5341 1.267.6541 1.9153.156.7307.3 1.4261.402 2.1509.2401 2.0625-.138 4.2017-1.0321 6.111-.06.1827-.12.3595-.222.4891-.024.0354-.042.059-.06.0825-.12.2181-.3781.6718-.3781.6777-.18.2357-.342.4833-.48.7308-.1021.1944-.2281.33-.3601.4714-.21.2298-.438.4891-.7141.7013l-.264.2003c-.252.1886-.246.1591-.4561.4125-.8221 1.0195-1.5722 2.0567-2.3103 3.1763-.336.5068-.486.7897-.8881 1.3083-.21.2828-.7561.7307-1.0321.9664-.6901.5068-.8881.8074-1.4162 1.214l-.288.2121c-1.0081.7779-2.2623 1.1786-3.5104 1.3142-.7801.0943-1.4882.1709-2.2263.2121-2.0943.0766-4.1825-.3889-6.0968-1.2257-.186-.0531-.36-.1179-.492-.2063-.0361-.0235-.0601-.0412-.0841-.0589-.216-.112-.678-.3477-.69-.3477-.2401-.165-.4921-.3182-.7441-.442-.1981-.0943-.3481-.1944-.4981-.33-.246-.1944-.4861-.4125-.7261-.6482l-.192-.2063c-.174-.1826-.3481-.3653-.5461-.5244-1.0081-.8015-2.0522-1.5263-3.1864-2.1215-.51-.2652-.7921-.3654-1.3201-.6247-.1441-.0707-.3361-.1944-.5401-.33-.234-.1473-.4621-.3005-.6241-.4007-.7021-.5068-1.1401-.6364-1.6622-1.0313-.5521-.4066-1.0261-.8957-1.4462-1.4261-.426-.5421-.7441-1.155-.9481-1.7973-.21-.6365-.366-1.2729-.4681-1.9211-.012-.0825-.036-.1709-.048-.2534-.054-.4597-.06-.9252-.03-1.3967.024-.4066.1381-1.0607.2281-1.4555.024-.1179.054-.2357.09-.3477v-.0118c.018-.0589.042-.1237.066-.1827.06-.1886.12-.3771.198-.5598-.414.4184-.7801.8898-1.2061 1.2788-.0661.0589-.1261.1237-.1921.1768-.024.0117-.096.0942-.198.2121-.27.3182-.7381.9193-.9301 1.2552 0 0-.006.0118-.012.0177-.3721.6011-.7081 1.2257-1.00814 1.8563-.018.0412-.036.0884-.054.1296-.12602.277-.24603.554-.36605.8309-.12601.3418-.22803.5952-.32404.9134-.10201.3418-.19802.6895-.27003 1.0431-.19203.8957-.25804 1.8209-.06601 2.7167.09601.4478.29404.878.59407 1.2434.15002.1827.31804.3477.50407.495.19203.1414.39603.2534.55803.4184l.2521.218.084.0766c.552.4597 1.0681.8604 1.7822 1.3201.114.0648.228.1296.348.1885.2641.1533.5281.3183.7621.495.006 0 .018.0118.024.0118.2401.1415.4801.2829.7201.4243.6781.4066 1.4762.7013 2.0583 1.2493.09.059 1.2361.8427 1.7042 1.161 1.3082.8544 2.5383 1.815 3.7085 2.805l.8641.7425c.288.2534.558.4243.8401.6365l.414.3064.4501.277c.306.1768.5881.383.9121.5244.4561.2181.9241.442 1.4222.5952l.7321.2652c.252.0766.498.1591.7381.2475l.354.1238c.3961.1237.7981.2298 1.2002.3418l1.2301.2357c.126.0059.252.0118.3841.0177.288.0235.576.0648.8401.1119h.054c.264.0118.528.0295.7921.0413.7501.0236 1.5002-.1414 2.2262-.0648.1021.0235 1.3562-.1297 1.8483-.277.342-.0766.6661-.2063.9961-.3005.318-.1297.6361-.2358.9421-.389.6061-.2828 1.2242-.6423 1.7282-1.0136 1.0202-.7778 1.7643-1.8798 2.5384-3.1822.558-.9252 1.0921-1.9977 1.8662-2.8934l.276-.3241c.6241-.7013 1.2842-1.379 1.9803-2.0096.102-.1001.198-.2003.306-.3064l.306-.277c.0961-.1001.1981-.1944.3001-.2828l.246-.2593.5641-.6659c.336-.4773.6301-.9841 1.0081-1.4084.09-.0531.6901-1.1374.8701-1.6147 1.0081-2.5752 1.2902-5.4569.7141-8.15z"/><path d="m45.8755 14.538c-.2821-.607-.7141-1.3318-1.1282-1.8445-.222-.2593-.444-.4833-.7141-.6954-.276-.2121-.6-.4302-.9541-.66-.7201-.4715-1.4702-1.0254-2.1362-1.62647-.3481-.31823-.6961-.63055-1.0322-.94877-.246-.22983-.486-.41251-.7861-.63644l-.8941-.6777-.342-.25929c-.114-.08839-.234-.17089-.3481-.25929-.654-.48322-1.3201-.94287-1.9442-1.27288-.126-.04715-.24-.09429-.3721-.14733-.276-.13553-.576-.21804-.8161-.35357h-.018c-.252-.07661-.51-.15912-.7681-.20626-.408-.08839-.8281-.09429-1.2421-.09429-.336 0-.6661.0059-.9901-.01768-.048.01179-.3961.01768-.7861.11786-.3901.07661-.8161.24162-1.0562.35948-.138.06482-.27.15321-.402.23571-.24.14733-.4741.30055-.6961.47144-.162.12965-.324.2534-.4741.40073-.9601.8368-1.8722 1.67949-2.8323 2.58112l-1.3142 1.21393-.7141.66-.8281.7661c-.42.389-.8221.7956-1.2421 1.2022-.066.0648-.138.1296-.2041.1945-.408.3948-.8341.7837-1.3081 1.1432-.126.0943-.258.2004-.4441.3241-.222.1473-.438.3005-.6541.4597-.492.3653-.9541.7602-1.3261 1.1903-.084.0943-.156.1945-.228.3065-.0421.053-.0841.106-.1261.165-.138.1768-.27.3536-.396.5127-.006.0118-.012.0176-.018.0294-.15.2181-.282.442-.3901.6777-.012.0236-.018.0413-.024.0648-.312.6483-.414 1.3613-.654 2.0272-.012.0118-.0181.059-.0301.1179-.018.1179-.042.3123-.06.5421l.012.7897c.018.165.042.3123.0601.4243.162.8604.546 1.6795 1.1161 2.3454.6241.7661 1.4822 1.3024 2.3523 1.7561l1.4702.7661c.528.277 1.0561.5775 1.5782.8898 1.0801.6483 2.2322 1.3436 3.1684 2.204l.336.3006c.192.1826.36.3123.5221.4478.168.1297.33.2711.51.4007.3721.2417.7321.5009 1.1402.6954.126.0589.246.112.372.1709.2881.1355.5881.2534.8521.4066l.018.0118c.2641.1061.5341.1886.8041.2888.7561.2357 1.5662.2946 2.3043.5127.03.0058.054.0176.078.0235.2521.0648 1.4702.1532 1.9863.1002.3-.0295.582-.0648.8641-.1061 1.2061-.1885 2.3523-.6953 3.2824-1.4673 0 0 .006 0 .012-.0059.168-.1356.33-.2711.4801-.4066.312-.277.606-.5599.8761-.8604.546-.5952 1.0381-1.3082 1.5662-2.0567.7081-1.0018 1.3561-2.0625 2.2562-3.0466.1561-.1709.3361-.3241.4141-.389.5701-.4773 1.0861-1.1255 1.5062-1.8091l.294-.5598c.108-.2299.216-.4597.3361-.6777l.09-.1886c.084-.2357.174-.4655.252-.7013.234-.7484.222-1.5439.4321-2.2747.006-.053.048-.4066.048-.8191s-.042-.878-.084-1.1491c-.1261-.7307-.3241-1.4497-.6121-2.092z"/><path d="m128.613 46.095c.247.2239.343.4832.343.7602 0 .3182-.126.5539-.319.7366-.162.1591-.438.3182-.852.3182-.3 0-.606-.0943-.84-.3064-.228-.2063-.33-.4774-.33-.7543 0-.33.15-.5952.36-.772.222-.1886.51-.2829.81-.2829.234 0 .546.0531.822.3006zm-1.47.1355c-.144.1297-.288.33-.288.6247 0 .2593.12.4891.276.6305.156.1415.402.2416.654.2416s.474-.0884.642-.2416c.114-.0943.288-.3005.288-.6246 0-.3242-.162-.5245-.288-.6365-.198-.1768-.432-.2416-.642-.2416-.24 0-.456.0707-.648.2416zm.648.0354c.09 0 .228.0059.324.0943.054.0471.102.1355.102.2534 0 .0648-.018.1532-.09.218-.048.0471-.126.0825-.216.0943l.408.4714h-.3l-.372-.4361v.4361h-.258v-1.1373h.396zm-.144.5127h.102c.09 0 .132-.0295.156-.0472.042-.0353.048-.0825.048-.1178 0-.059-.024-.0943-.048-.1179-.042-.0354-.108-.0354-.144-.0354h-.108v.3124z"/></g></svg>